<?xml version="1.0" encoding="UTF-8"?>
<!-- Generator: visioncortex VTracer 0.6.4 -->
<svg version="1.1" xmlns="http://www.w3.org/2000/svg" width="2000" height="500">
<path d="M0 0 C0.93532562 -0.00807175 1.87065125 -0.01614349 2.83432007 -0.02445984 C4.81270537 -0.03823329 6.79111377 -0.04898528 8.76953125 -0.05688477 C10.74714372 -0.06829654 12.72472812 -0.08857217 14.70214844 -0.1184082 C63.13843484 -0.84649816 108.33192541 18.87951991 143.1484375 52.23828125 C143.89891357 52.94791016 143.89891357 52.94791016 144.66455078 53.671875 C182.85619679 89.91158539 200.3255568 138.97278288 202.24169922 190.75878906 C202.92005207 236.31064749 186.98105978 279.33071425 158.1484375 314.23828125 C157.42527344 315.19089844 156.70210937 316.14351563 155.95703125 317.125 C155.36019531 317.82238281 154.76335937 318.51976562 154.1484375 319.23828125 C153.4884375 319.23828125 152.8284375 319.23828125 152.1484375 319.23828125 C151.9215625 319.79 151.6946875 320.34171875 151.4609375 320.91015625 C139.38714737 342.32676018 108.0385443 357.9691861 86.38574219 367.26489258 C84.87485284 367.92223826 83.3703248 368.5943738 81.87207031 369.2800293 C77.0018269 371.50760628 72.17295319 373.33307743 67.0234375 374.80078125 C66.29044434 375.01130127 65.55745117 375.22182129 64.80224609 375.4387207 C16.4954956 389.00317286 -35.87483966 382.31519542 -79.8515625 358.23828125 C-89.34156293 352.64667193 -98.12600107 345.93655368 -106.8515625 339.23828125 C-107.62113281 338.70074219 -108.39070312 338.16320312 -109.18359375 337.609375 C-110.00923828 336.93068359 -110.00923828 336.93068359 -110.8515625 336.23828125 C-110.8515625 335.57828125 -110.8515625 334.91828125 -110.8515625 334.23828125 C-111.43583008 333.97853516 -112.02009766 333.71878906 -112.62207031 333.45117188 C-115.00717414 332.15362525 -116.60346887 330.74487003 -118.5234375 328.83203125 C-119.18730469 328.17074219 -119.85117187 327.50945312 -120.53515625 326.828125 C-121.55802734 325.79365234 -121.55802734 325.79365234 -122.6015625 324.73828125 C-123.64763672 323.70380859 -123.64763672 323.70380859 -124.71484375 322.6484375 C-125.37355469 321.98714844 -126.03226563 321.32585937 -126.7109375 320.64453125 C-127.31389648 320.03931641 -127.91685547 319.43410156 -128.53808594 318.81054688 C-129.8515625 317.23828125 -129.8515625 317.23828125 -129.8515625 315.23828125 C-130.5115625 315.23828125 -131.1715625 315.23828125 -131.8515625 315.23828125 C-133.17675781 313.72875977 -133.17675781 313.72875977 -134.6796875 311.6171875 C-135.23269531 310.84568359 -135.78570313 310.07417969 -136.35546875 309.27929688 C-136.93167969 308.46138672 -137.50789062 307.64347656 -138.1015625 306.80078125 C-138.66230469 306.01767578 -139.22304688 305.23457031 -139.80078125 304.42773438 C-141.50092821 302.04242427 -143.1796215 299.64343062 -144.8515625 297.23828125 C-145.63672241 296.12126831 -145.63672241 296.12126831 -146.43774414 294.98168945 C-150.10678966 289.64793551 -153.0563962 284.1642945 -155.7890625 278.30078125 C-156.21727295 277.38619141 -156.6454834 276.47160156 -157.08666992 275.52929688 C-164.24585969 260.05547425 -169.35216987 244.93976205 -172.8515625 228.23828125 C-173.08746094 227.14386719 -173.32335937 226.04945313 -173.56640625 224.921875 C-175.84553812 213.49294366 -176.01502453 201.85381469 -175.9765625 190.23828125 C-175.98042969 189.07039062 -175.98429688 187.9025 -175.98828125 186.69921875 C-175.97633175 175.92077322 -175.65985679 165.19872596 -173.1640625 154.67578125 C-172.99108643 153.92748047 -172.81811035 153.17917969 -172.63989258 152.40820312 C-162.58882292 110.15963914 -142.06895318 68.26558108 -106.8515625 41.23828125 C-106.1915625 41.23828125 -105.5315625 41.23828125 -104.8515625 41.23828125 C-104.8515625 40.57828125 -104.8515625 39.91828125 -104.8515625 39.23828125 C-102.78069919 37.65650076 -100.71990312 36.21838237 -98.5390625 34.80078125 C-97.8697168 34.36266113 -97.20037109 33.92454102 -96.51074219 33.47314453 C-82.21545346 24.22344443 -67.79657784 16.27287821 -51.8515625 10.23828125 C-51.19736328 9.98852539 -50.54316406 9.73876953 -49.86914062 9.48144531 C-33.9478611 3.50889456 -16.99836276 0.14366552 0 0 Z M-19.8515625 81.23828125 C-21.54345703 81.78162109 -21.54345703 81.78162109 -23.26953125 82.3359375 C-48.68995715 91.29534687 -69.01663616 110.57264125 -81.453125 134.29296875 C-82.66620779 136.92007442 -83.78450342 139.54855647 -84.8515625 142.23828125 C-85.16222656 142.96684326 -85.47289062 143.69540527 -85.79296875 144.44604492 C-91.92802688 159.10661018 -93.23269974 174.42023917 -93.2890625 190.17578125 C-93.29905273 191.44188232 -93.30904297 192.7079834 -93.31933594 194.01245117 C-93.05597968 222.93084936 -81.17082047 248.60147622 -61.6015625 269.54296875 C-48.90399797 281.98802489 -33.75026222 289.97868595 -16.8515625 295.23828125 C-15.93761719 295.54636719 -15.02367187 295.85445312 -14.08203125 296.171875 C11.96593707 303.96018026 42.32928334 298.82119885 66 286.23828125 C74.82021722 281.3187763 81.99916311 275.32266056 89.1484375 268.23828125 C90.16357422 267.29662109 90.16357422 267.29662109 91.19921875 266.3359375 C107.15921738 251.29602748 114.56906532 230.25854336 118.1484375 209.23828125 C118.32189697 208.47805664 118.49535645 207.71783203 118.67407227 206.93457031 C119.57385402 201.82021638 119.37401767 196.62069069 119.38867188 191.44042969 C119.39824672 189.40385985 119.42924368 187.36835906 119.4609375 185.33203125 C119.56250557 172.87969104 117.49893164 161.05717949 113.4609375 149.23828125 C113.20602539 148.48973877 112.95111328 147.74119629 112.68847656 146.9699707 C108.02697276 133.81946193 100.99039788 122.95537188 92.1484375 112.23828125 C91.7054834 111.67641113 91.2625293 111.11454102 90.80615234 110.53564453 C89.63173192 109.0662214 88.39438629 107.6475645 87.1484375 106.23828125 C86.4884375 106.23828125 85.8284375 106.23828125 85.1484375 106.23828125 C85.1484375 105.57828125 85.1484375 104.91828125 85.1484375 104.23828125 C60.99259304 82.12954225 32.48614053 75.82094439 0.46875 77.02246094 C-6.62624867 77.48363585 -13.12680892 78.99669672 -19.8515625 81.23828125 Z " fill="#000000" transform="translate(1086.8515625,68.76171875)"/>
<path d="M0 0 C0.99954208 -0.00570007 1.99908417 -0.01140015 3.02891541 -0.01727295 C5.14434771 -0.02668633 7.25979443 -0.0332423 9.37524414 -0.03710938 C12.52843926 -0.04668846 15.68094537 -0.07769363 18.83398438 -0.109375 C37.72263633 -0.20762378 56.54501034 1.05361098 74.52734375 7.203125 C75.61273437 7.54988281 76.698125 7.89664063 77.81640625 8.25390625 C82.96134118 9.97479828 87.79952766 11.72115979 92.51220703 14.40917969 C105.87981381 21.86688103 117.64189333 22.46005687 132.71484375 22.265625 C135.05770744 22.26873928 137.40056898 22.27595713 139.7434082 22.28710938 C145.58181028 22.30533203 151.41864619 22.2744101 157.25683594 22.22637939 C162.15954543 22.19151951 167.06203889 22.19388856 171.96484375 22.19921875 C177.00291191 22.20318886 182.0408193 22.20574655 187.07885742 22.18579102 C200.24915272 22.14099727 213.37317613 22.51388768 226.52734375 23.203125 C225.5358887 36.00344805 225.5358887 36.00344805 224.58984375 41.640625 C224.43644531 42.58808594 224.28304688 43.53554687 224.125 44.51171875 C223.52734375 47.203125 223.52734375 47.203125 222.578125 49.4375 C221.02650021 53.5213303 220.41073851 57.72357264 219.65234375 62.015625 C218.2463064 69.67151802 216.61701418 77.17626404 214.66015625 84.7109375 C213.16421868 90.53450573 211.86183227 96.40343726 210.52734375 102.265625 C208.89929219 109.40835715 207.2265382 116.51593169 205.27734375 123.578125 C202.08040482 135.40278614 201.38584979 145.23145522 202.7779541 157.3923645 C203.39896277 163.14361078 203.68643791 168.81120312 203.6953125 174.59375 C203.69963791 175.45254257 203.70396332 176.31133514 203.7084198 177.19615173 C203.71844146 179.94853375 203.7186197 182.70072859 203.71484375 185.453125 C203.71294037 186.86556992 203.71294037 186.86556992 203.71099854 188.30654907 C203.58851936 235.84618297 191.43056877 282.90964647 156.97265625 317.7890625 C156.16570312 318.58570313 155.35875 319.38234375 154.52734375 320.203125 C153.95628906 320.79738281 153.38523437 321.39164062 152.796875 322.00390625 C151.41160448 323.44117084 149.97055775 324.82405384 148.52734375 326.203125 C147.86734375 326.203125 147.20734375 326.203125 146.52734375 326.203125 C146.52734375 326.863125 146.52734375 327.523125 146.52734375 328.203125 C144.91351427 329.65972477 143.23371159 331.04361451 141.52734375 332.390625 C138.18107586 335.05744763 134.91134118 337.72850349 131.77734375 340.640625 C121.30416796 349.83658423 109.06504617 356.31738909 96.52734375 362.203125 C95.50382812 362.698125 94.4803125 363.193125 93.42578125 363.703125 C82.73742635 368.76127605 71.56901696 371.29313995 60.03759766 373.66943359 C57.58983498 374.18983908 55.16053443 374.76663724 52.7265625 375.34765625 C24.99898983 381.50399965 -6.10017176 380.39493212 -33.47265625 373.203125 C-35.08298183 372.81364795 -36.69364254 372.42555309 -38.3046875 372.0390625 C-54.47525531 367.99728751 -70.42902569 362.25090666 -84.47265625 353.203125 C-88.07799452 351.08350305 -91.70035929 349.01382754 -95.47265625 347.203125 C-95.47265625 346.543125 -95.47265625 345.883125 -95.47265625 345.203125 C-96.1790625 344.96722656 -96.88546875 344.73132813 -97.61328125 344.48828125 C-107.22183003 340.16968487 -115.4020171 330.4657206 -122.78515625 323.140625 C-123.54473633 322.39031006 -124.30431641 321.63999512 -125.08691406 320.86694336 C-125.7878418 320.16190674 -126.48876953 319.45687012 -127.2109375 318.73046875 C-128.1551355 317.78288696 -128.1551355 317.78288696 -129.1184082 316.81616211 C-130.47265625 315.203125 -130.47265625 315.203125 -130.47265625 313.203125 C-131.13265625 313.203125 -131.79265625 313.203125 -132.47265625 313.203125 C-133.734375 311.8046875 -133.734375 311.8046875 -135.16015625 309.828125 C-135.95389648 308.73286499 -135.95389648 308.73286499 -136.76367188 307.61547852 C-137.32763672 306.81940186 -137.89160156 306.0233252 -138.47265625 305.203125 C-139.34180664 303.98484009 -139.34180664 303.98484009 -140.22851562 302.74194336 C-150.46991273 288.25442245 -158.6677605 274.03478779 -164.47265625 257.203125 C-164.71628906 256.5121875 -164.95992187 255.82125 -165.2109375 255.109375 C-165.99989283 252.81743772 -166.73964835 250.51361994 -167.47265625 248.203125 C-167.86582031 246.99140625 -168.25898437 245.7796875 -168.6640625 244.53125 C-183.70560236 196.84962535 -177.33626221 143.5978989 -155.890625 98.90625 C-148.54965518 84.91189431 -139.54088351 71.84629612 -128.58984375 60.4609375 C-126.44843698 58.39267553 -126.44843698 58.39267553 -125.47265625 56.203125 C-124.81265625 56.203125 -124.15265625 56.203125 -123.47265625 56.203125 C-123.47265625 55.543125 -123.47265625 54.883125 -123.47265625 54.203125 C-122.81265625 54.203125 -122.15265625 54.203125 -121.47265625 54.203125 C-121.14265625 53.213125 -120.81265625 52.223125 -120.47265625 51.203125 C-107.70602063 37.64329605 -91.07206627 27.1511365 -74.43896484 19.14941406 C-72.67113133 18.29864144 -70.90937756 17.43526308 -69.1484375 16.5703125 C-47.59584388 6.24021116 -23.95932414 0.10872859 0 0 Z M-16.47265625 66.203125 C-16.47265625 67.523125 -16.47265625 68.843125 -16.47265625 70.203125 C-14.30342445 71.96077852 -14.30342445 71.96077852 -11.47265625 73.453125 C0.53264864 80.71178816 8.04082649 90.83944719 11.828125 104.390625 C14.26378404 117.67108993 13.50155523 130.97683174 7.52734375 143.203125 C5.68960241 145.85429284 3.81857368 147.91189507 1.52734375 150.203125 C1.52734375 150.863125 1.52734375 151.523125 1.52734375 152.203125 C0.86734375 152.203125 0.20734375 152.203125 -0.47265625 152.203125 C-0.47265625 152.863125 -0.47265625 153.523125 -0.47265625 154.203125 C-1.13265625 154.203125 -1.79265625 154.203125 -2.47265625 154.203125 C-2.47265625 154.863125 -2.47265625 155.523125 -2.47265625 156.203125 C-3.03855469 156.47253906 -3.60445312 156.74195313 -4.1875 157.01953125 C-6.57916226 158.25828965 -8.77479064 159.67715929 -11.03515625 161.140625 C-22.13930902 167.74178559 -34.95354023 168.96548023 -47.57421875 166.62890625 C-49.95464811 165.94929726 -52.19309674 165.16411577 -54.47265625 164.203125 C-55.48328125 163.790625 -56.49390625 163.378125 -57.53515625 162.953125 C-71.16257312 154.83466389 -79.32635374 144.06726784 -83.31201172 128.65209961 C-84.07712594 125.51108604 -84.79088939 122.36331494 -85.47265625 119.203125 C-87.36479738 119.16693165 -87.36479738 119.16693165 -89.47265625 120.203125 C-90.97573222 122.53989089 -92.17259319 124.70684532 -93.34765625 127.203125 C-93.69280273 127.92153564 -94.03794922 128.63994629 -94.39355469 129.38012695 C-110.06249952 162.75816833 -112.48883855 201.10626864 -100.25878906 236.10009766 C-94.37068227 251.85169764 -85.63104859 265.51931674 -73.47265625 277.203125 C-72.81265625 277.203125 -72.15265625 277.203125 -71.47265625 277.203125 C-71.47265625 277.863125 -71.47265625 278.523125 -71.47265625 279.203125 C-69.40684338 281.02164348 -67.3389941 282.71664666 -65.16015625 284.390625 C-64.51788086 284.88602783 -63.87560547 285.38143066 -63.21386719 285.8918457 C-35.22507358 307.2522639 -2.55200518 315.30864454 32.38085938 311.49365234 C42.40075231 310.13745664 52.13665669 307.95688052 61.52734375 304.203125 C62.98720703 303.65591797 62.98720703 303.65591797 64.4765625 303.09765625 C84.99490904 294.98983601 101.03312916 281.15295818 113.52734375 263.203125 C114.09710937 262.49800781 114.666875 261.79289063 115.25390625 261.06640625 C116.8094685 259.16646776 116.8094685 259.16646776 116.52734375 256.203125 C117.18734375 256.203125 117.84734375 256.203125 118.52734375 256.203125 C119.14609375 254.965625 119.14609375 254.965625 119.77734375 253.703125 C120.66668932 251.92443385 121.5567022 250.14598947 122.46557617 248.37719727 C137.18959041 219.51989051 138.73466834 180.56841017 129.65234375 149.6484375 C124.6165283 134.22625269 118.44211053 120.35419222 107.52734375 108.203125 C106.61776221 107.16209341 105.70892827 106.12040823 104.80078125 105.078125 C101.2605231 101.05050078 101.2605231 101.05050078 97.52734375 97.203125 C96.86734375 97.203125 96.20734375 97.203125 95.52734375 97.203125 C95.52734375 96.543125 95.52734375 95.883125 95.52734375 95.203125 C93.60624732 93.50184055 91.69280372 91.93746641 89.65234375 90.390625 C89.06606201 89.94283691 88.47978027 89.49504883 87.87573242 89.03369141 C79.91104268 82.81793304 79.91104268 82.81793304 70.52734375 80.203125 C70.52734375 79.543125 70.52734375 78.883125 70.52734375 78.203125 C52.26320643 71.06587705 34.90915464 66.27553408 15.21484375 65.578125 C13.34844238 65.51057007 13.34844238 65.51057007 11.44433594 65.44165039 C2.07476396 65.14938294 -7.14191924 65.33669942 -16.47265625 66.203125 Z " fill="#000000" transform="translate(1762.47265625,70.796875)"/>
<path d="M0 0 C4.46351622 1.66768738 5.14795024 4.08424229 7.07885742 8.29272461 C7.72624878 9.79138062 7.72624878 9.79138062 8.38671875 11.3203125 C9.34448094 13.42864497 10.30283108 15.53671043 11.26171875 17.64453125 C11.74640625 18.73040527 12.23109375 19.8162793 12.73046875 20.93505859 C15.0310471 26.04176126 17.45877128 31.0857506 19.88671875 36.1328125 C20.345625 37.09276123 20.80453125 38.05270996 21.27734375 39.04174805 C24.84942376 46.50731829 28.51634037 53.92102764 32.24755859 61.30810547 C33.90720206 64.59929173 35.55224638 67.89777263 37.19921875 71.1953125 C37.86582037 72.52867836 38.53248693 73.86201175 39.19921875 75.1953125 C75.86588542 148.52864583 112.53255208 221.86197917 149.19921875 295.1953125 C149.85921875 295.1953125 150.51921875 295.1953125 151.19921875 295.1953125 C151.7303125 294.12152344 152.26140625 293.04773438 152.80859375 291.94140625 C153.5220262 290.50515408 154.23557404 289.06895922 154.94921875 287.6328125 C155.29726562 286.92833984 155.6453125 286.22386719 156.00390625 285.49804688 C157.69478792 282.10062723 159.42465394 278.75743314 161.33984375 275.48046875 C162.90059167 272.72292883 164.04099972 270.12705443 165.19921875 267.1953125 C166.51243282 264.68209247 167.84530463 262.18629266 169.19921875 259.6953125 C173.21571393 252.21379917 176.91658982 244.61087141 180.53491211 236.93017578 C183.04407538 231.60800334 185.60669778 226.32117665 188.26171875 221.0703125 C191.16629399 215.32043906 193.95695852 209.524294 196.69921875 203.6953125 C201.76148747 192.95108168 206.9742962 182.30328461 212.60522461 171.84448242 C216.23091983 165.10667474 219.49969294 158.35340643 222.45849609 151.29833984 C225.11238645 145.11101017 228.38655053 139.33070689 231.71630859 133.48681641 C234.24102203 129.02374333 236.34081681 124.64823909 238.10546875 119.828125 C239.58949581 116.25585987 241.42169461 112.90753231 243.26171875 109.5078125 C247.50627999 101.65946235 251.36028192 93.65737494 255.16870117 85.58984375 C257.8305586 79.97823381 260.59214163 74.45568611 263.57421875 69.0078125 C266.37315575 63.89036853 268.71589756 58.70964625 270.88671875 53.296875 C272.63511267 49.16525366 274.65386125 45.18785506 276.68652344 41.19189453 C280.8073756 33.06223182 284.71428788 24.82882796 288.63085938 16.59936523 C291.30600629 11.00686871 294.01686995 5.51725017 297.19921875 0.1953125 C298.84921875 0.5253125 300.49921875 0.8553125 302.19921875 1.1953125 C304.85162988 15.25649201 306.80205451 29.3901994 308.69921875 43.5703125 C309.29033014 47.97431797 309.88386665 52.37798492 310.48046875 56.78125 C310.62495956 57.84838226 310.76945038 58.91551453 310.9183197 60.01498413 C311.90644052 67.24031073 313.00701415 74.44127117 314.17237854 81.63983154 C315.35503772 89.01198516 316.25981589 96.40542876 317.13671875 103.8203125 C318.42060891 114.43056275 319.8855506 124.99095289 321.62646484 135.53710938 C323.09563325 144.45206325 324.44792548 153.38136614 325.76171875 162.3203125 C325.92326447 163.41844269 325.92326447 163.41844269 326.08807373 164.53875732 C327.23890628 172.38139568 328.36239067 180.22614918 329.36523438 188.08935547 C329.49607422 189.11432129 329.62691406 190.13928711 329.76171875 191.1953125 C329.86133911 191.98291962 329.96095947 192.77052673 330.06359863 193.58200073 C330.93440195 200.3737965 331.927388 207.14051909 332.98046875 213.90625 C333.15280533 215.02051361 333.32514191 216.13477722 333.50270081 217.2828064 C334.65593687 224.72904967 335.82104504 232.17342854 336.98669434 239.61773682 C338.04043283 246.35134966 339.09071955 253.08549303 340.13671875 259.8203125 C340.30078154 260.87653809 340.30078154 260.87653809 340.46815872 261.95410156 C343.50525527 281.52657082 346.40555457 301.09930112 348.66577148 320.77978516 C348.8314008 322.21001518 348.99748342 323.64019279 349.1640625 325.0703125 C349.24208603 325.74532806 349.32010956 326.42034363 349.40049744 327.11581421 C350.08787805 332.8085712 351.07646401 338.43513193 352.23753357 344.05029297 C353.39682115 350.03071728 353.19921875 354.77317636 353.19921875 361.1953125 C342.30921875 361.1953125 331.41921875 361.1953125 320.19921875 361.1953125 C317.95033437 354.44865936 317.95033437 354.44865936 317.453125 350.90234375 C317.3396875 350.11762695 317.22625 349.33291016 317.109375 348.52441406 C316.99464844 347.69393555 316.87992187 346.86345703 316.76171875 346.0078125 C316.50341222 344.20691516 316.24427843 342.40613632 315.984375 340.60546875 C315.85434082 339.69812988 315.72430664 338.79079102 315.59033203 337.85595703 C315.11756731 334.63985847 314.59758534 331.43287009 314.07177734 328.22509766 C311.83329095 314.52720388 310.09266144 300.75166091 308.63671875 286.94921875 C308.50825562 285.73794312 308.50825562 285.73794312 308.37719727 284.50219727 C308.22352241 283.02801076 308.07505329 281.5532662 307.93334961 280.07788086 C307.59354478 276.7789256 307.07106208 273.70358621 306.23364258 270.49047852 C305.14359174 266.21586468 304.58614317 261.9786987 304.12109375 257.59765625 C303.93100796 255.91061493 303.74064759 254.22360453 303.55004883 252.53662109 C303.40353378 251.2158255 303.40353378 251.2158255 303.25405884 249.86834717 C301.33211694 232.62147281 299.00102397 215.47386289 296.25488281 198.33959961 C294.91338742 189.95635884 293.71724036 181.58086735 292.69750977 173.15234375 C291.92864151 167.04660306 291.0023179 160.96632498 290.0821228 154.88189697 C288.37205968 143.54521602 286.75128229 132.20469542 285.38671875 120.8203125 C285.26304932 119.79365479 285.13937988 118.76699707 285.01196289 117.70922852 C284.55860647 113.82088945 284.19921875 110.11795933 284.19921875 106.1953125 C281.01078299 109.09493912 279.1824644 111.793862 277.3515625 115.68359375 C276.83424561 116.77115967 276.31692871 117.85872559 275.78393555 118.97924805 C274.96856323 120.72588745 274.96856323 120.72588745 274.13671875 122.5078125 C273.56180714 123.72281627 272.9860309 124.93741126 272.40942383 126.15161133 C271.23415646 128.62934959 270.06333657 131.10910812 268.89648438 133.59082031 C266.41327835 138.86441837 263.90170995 144.12431603 261.38671875 149.3828125 C260.93570801 150.32680908 260.48469727 151.27080566 260.02001953 152.2434082 C255.25420783 162.20152009 250.43075439 172.12161936 245.15551758 181.82128906 C242.1033977 187.43549279 239.31437947 193.0586833 236.82421875 198.9453125 C233.18401286 207.53830867 228.8008601 215.68826054 224.40722656 223.9140625 C220.02162794 232.19600137 215.92362219 240.62118108 211.94897461 249.10668945 C208.64387233 256.16240487 205.24148015 263.13272793 201.57421875 270.0078125 C197.13239775 278.33944914 192.85850581 286.75069322 188.63671875 295.1953125 C188.31168365 295.84530212 187.98664856 296.49529175 187.65176392 297.16497803 C183.39197856 305.69411264 179.23563987 314.26530782 175.20117188 322.90356445 C172.68610829 328.25645811 169.98608745 333.48359795 167.15991211 338.67822266 C164.22770236 344.07737562 161.49311556 349.56654325 158.81225586 355.09448242 C157.47408771 357.82004898 156.36241636 360.03211489 154.19921875 362.1953125 C146.98500355 362.76786926 146.98500355 362.76786926 144.64453125 361.0625 C142.69052893 358.53814025 141.40380902 355.88127199 140.01171875 353.0078125 C139.39223192 351.7394344 138.77242811 350.47121108 138.15234375 349.203125 C137.83201172 348.54344727 137.51167969 347.88376953 137.18164062 347.20410156 C136.21748723 345.23266664 135.23581878 343.27120733 134.24609375 341.3125 C130.80840669 334.50853185 127.46908805 327.67350409 124.26171875 320.7578125 C121.25860167 314.29211322 118.01437271 307.99527651 114.62963867 301.72216797 C111.75748342 296.35760584 109.13671542 290.90111165 106.57421875 285.3828125 C103.60510405 278.99361078 100.39014802 272.90650669 96.7421875 266.87109375 C94.73904317 263.3972865 93.16283173 259.79797319 91.5546875 256.12890625 C90.02770303 252.824107 88.31731675 249.63884019 86.57421875 246.4453125 C83.31126972 240.43016365 80.3083267 234.32029958 77.38671875 228.1328125 C72.24768162 217.26375365 66.89833389 206.50580262 61.51171875 195.7578125 C60.90944962 194.55606888 60.90944962 194.55606888 60.29501343 193.33004761 C58.72838286 190.20507045 57.16122361 187.08036175 55.59210205 183.95663452 C53.71724011 180.22414926 51.84611196 176.48990585 49.98461914 172.75073242 C49.62961838 172.03823837 49.27461761 171.32574432 48.90885925 170.59165955 C48.25081711 169.27026211 47.59367326 167.94841671 46.93769836 166.62599182 C44.13936278 161.00940552 41.16573551 155.4940558 38.15625 149.98828125 C36.10330043 146.11620203 34.32679609 142.1288773 32.53100586 138.13256836 C30.28585833 133.18089652 27.92641691 128.28430235 25.57421875 123.3828125 C25.09726563 122.38572266 24.6203125 121.38863281 24.12890625 120.36132812 C23.4328125 118.90823242 23.4328125 118.90823242 22.72265625 117.42578125 C22.06668457 116.05365479 22.06668457 116.05365479 21.39746094 114.65380859 C20.42755781 112.66380769 19.40345091 110.70028483 18.36328125 108.74609375 C17.19921875 106.1953125 17.19921875 106.1953125 17.19921875 102.1953125 C16.20921875 102.6903125 16.20921875 102.6903125 15.19921875 103.1953125 C14.64445926 105.14560342 14.64445926 105.14560342 14.36132812 107.53710938 C14.22778931 108.46317993 14.09425049 109.38925049 13.95666504 110.34338379 C13.82014526 111.35670776 13.68362549 112.37003174 13.54296875 113.4140625 C13.32127014 114.9828717 13.32127014 114.9828717 13.09509277 116.58337402 C12.62131063 119.95289459 12.1603583 123.32404099 11.69921875 126.6953125 C11.38880996 128.90766295 11.07762103 131.11990409 10.765625 133.33203125 C9.35784196 143.37736344 8.01414949 153.42505534 6.86361694 163.50320435 C6.13359308 169.87658978 5.24854469 176.22261682 4.32421875 182.5703125 C4.15277344 183.76164795 3.98132813 184.9529834 3.8046875 186.18041992 C2.95096549 192.09299008 2.08119379 198.00290729 1.19140625 203.91015625 C-1.19579658 219.76775225 -3.32466135 235.64716377 -5.33935547 251.55566406 C-6.02681881 256.97825849 -6.72388321 262.39956981 -7.42578125 267.8203125 C-7.53672119 268.68881836 -7.64766113 269.55732422 -7.76196289 270.45214844 C-8.35999869 275.07078384 -9.02892169 279.6702655 -9.76171875 284.26953125 C-11.12504944 293.02368487 -12.07079456 301.82505124 -13.05078125 310.62866211 C-13.88291467 318.07316821 -14.74250575 325.44478328 -16.32763672 332.7746582 C-17.29122376 337.70446496 -17.78574011 342.70829059 -18.36328125 347.6953125 C-18.61118817 349.83112598 -18.86232255 351.96656814 -19.1171875 354.1015625 C-19.22490479 355.03291016 -19.33262207 355.96425781 -19.44360352 356.92382812 C-19.80078125 359.1953125 -19.80078125 359.1953125 -20.80078125 361.1953125 C-25.48217379 361.21996538 -30.16352884 361.23814989 -34.8449707 361.25024414 C-36.43872739 361.25528407 -38.03247944 361.262116 -39.6262207 361.27075195 C-41.91228378 361.28283249 -44.19828592 361.28854405 -46.484375 361.29296875 C-47.20104843 361.29813004 -47.91772186 361.30329132 -48.65611267 361.30860901 C-50.37141797 361.30880513 -52.08659391 361.25723257 -53.80078125 361.1953125 C-54.13078125 360.8653125 -54.46078125 360.5353125 -54.80078125 360.1953125 C-54.70572432 350.32079876 -53.05379874 340.56149386 -51.44723511 330.84536743 C-50.75600836 326.66081448 -50.08657664 322.47274983 -49.4140625 318.28515625 C-49.27706436 317.43527634 -49.14006622 316.58539642 -48.99891663 315.70976257 C-47.67695297 307.4856795 -46.44126425 299.2500446 -45.23828125 291.0078125 C-45.13662659 290.31242371 -45.03497192 289.61703491 -44.93023682 288.90057373 C-43.19559963 277.02017843 -41.49980176 265.13416537 -39.81176758 253.24707031 C-38.62155218 244.87628281 -37.40976542 236.50898382 -36.17578125 228.14453125 C-32.8798479 205.77940319 -29.7152948 183.40307798 -26.73309326 160.99380493 C-24.93190205 147.46281644 -23.07362216 133.94500685 -21.05078125 120.4453125 C-19.55663492 110.47225832 -18.16557245 100.49906917 -16.95947266 90.48706055 C-15.80329209 80.97368786 -14.44897732 71.48993059 -13.10656738 62.0015564 C-11.0044903 47.09502713 -9.17014791 32.15999319 -7.41259766 17.20922852 C-7.31183929 16.36147858 -7.21108093 15.51372864 -7.10726929 14.64028931 C-6.91832886 13.04953023 -6.73200146 11.45845783 -6.54873657 9.86703491 C-6.18725321 6.83267885 -5.77032061 4.10393057 -4.80078125 1.1953125 C-2.80078125 0.1953125 -2.80078125 0.1953125 0 0 Z " fill="#000000" transform="translate(72.80078125,77.8046875)"/>
<path d="M0 0 C16.07512388 -0.09427461 32.1501554 -0.16437959 48.22549057 -0.20724869 C55.69290263 -0.22770025 63.16014102 -0.2554783 70.62744141 -0.30175781 C77.15107463 -0.34216886 83.67458188 -0.36755842 90.19833684 -0.37635398 C93.63894247 -0.38147917 97.07918835 -0.39313861 100.51967621 -0.42292023 C124.77027937 -0.60897592 148.56276683 1.52043605 172 8 C172.98734131 8.26417725 172.98734131 8.26417725 173.99462891 8.53369141 C184.06668336 11.26118529 193.14019139 15.1769365 202.32714844 20.10693359 C203.69884658 20.83922662 205.08579038 21.54289519 206.4765625 22.23828125 C242.78732479 40.93764385 265.8701459 77.9013238 278.27026367 115.63647461 C279.51151083 119.65672009 280.52216653 123.72137094 281.5 127.8125 C281.69980469 128.60591797 281.89960937 129.39933594 282.10546875 130.21679688 C286.17216611 147.14410086 287.5188706 163.82195028 287.375 181.1875 C287.37101196 182.16835571 287.36702393 183.14921143 287.36291504 184.15979004 C287.24518283 208.90066041 284.61528577 232.37308774 277 256 C276.73832031 256.89332031 276.47664063 257.78664063 276.20703125 258.70703125 C270.50088639 277.32052561 259.7627347 295.37012448 247 310 C246.18015625 310.95261719 245.3603125 311.90523438 244.515625 312.88671875 C226.70634427 333.18413288 203.36263923 347.74171049 177 354 C176.37730225 354.1664502 175.75460449 354.33290039 175.11303711 354.50439453 C170.40075183 355.75265921 165.78277858 356.5011534 160.9375 357 C159.59227975 357.14427387 158.24723429 357.29018432 156.90234375 357.4375 C155.83913249 357.55217259 155.83913249 357.55217259 154.75444221 357.6691618 C152.74517063 357.91049697 150.74002321 358.18691994 148.73821831 358.48389149 C140.05237476 359.75649329 131.62212259 360.28355072 122.82861328 360.24291992 C121.4881379 360.24399691 120.14766298 360.24594172 118.80718994 360.24867249 C115.22130092 360.25345106 111.63553952 360.24595911 108.04966593 360.23571944 C104.28123052 360.22684382 100.51279798 360.22869806 96.74435425 360.2290802 C90.43550513 360.22814919 84.12670469 360.21953336 77.81787109 360.20581055 C70.51999137 360.18999534 63.22216446 360.18481601 55.92426884 360.1855461 C48.13619549 360.18621997 40.3481425 360.17929901 32.56007528 360.1700995 C30.31801495 360.16796656 28.07595789 360.16725817 25.83389664 360.16686058 C21.67585989 360.16567465 17.51788635 360.1559852 13.35986328 360.14526367 C12.11532379 360.14571686 10.8707843 360.14617004 9.58853149 360.14663696 C8.46450928 360.14237198 7.34048706 360.13810699 6.18240356 360.13371277 C4.70864352 360.131199 4.70864352 360.131199 3.20511055 360.12863445 C1 360 1 360 0 359 C-0.09766654 357.09216326 -0.12371322 355.180651 -0.12304783 353.27031612 C-0.12503888 352.01778606 -0.12702993 350.765256 -0.12908131 349.47477049 C-0.12622771 348.06675253 -0.12328211 346.65873476 -0.12025452 345.25071716 C-0.12069009 343.76905059 -0.12156473 342.28738409 -0.12284368 340.805718 C-0.12509141 336.71480261 -0.12106358 332.62391315 -0.11606562 328.53300107 C-0.11176527 324.12875118 -0.11320725 319.72450286 -0.1139679 315.32025146 C-0.1144934 307.68314197 -0.11134389 300.04604099 -0.10573006 292.40893364 C-0.09761857 281.36682588 -0.0950002 270.32472227 -0.09374207 259.28261185 C-0.09155099 241.36947653 -0.08488941 223.45634575 -0.07543945 205.54321289 C-0.06626676 188.13761416 -0.05918523 170.73201667 -0.05493164 153.32641602 C-0.05453756 151.71831298 -0.05453756 151.71831298 -0.05413551 150.07772302 C-0.05283051 144.69971208 -0.0515668 139.32170113 -0.05032361 133.94369018 C-0.03994927 89.29579031 -0.02232945 44.64789539 0 0 Z M70 64 C68.32004308 67.35991385 68.86361517 71.15664032 68.87301636 74.85157776 C68.87145637 75.77954743 68.86989638 76.7075171 68.86828911 77.66360706 C68.86428097 80.79211133 68.86746804 83.92056759 68.87060547 87.04907227 C68.86925136 89.28416981 68.86747137 91.51926712 68.86529541 93.75436401 C68.86072254 99.83883496 68.86250997 105.92328903 68.8656745 112.00776029 C68.86819853 118.36145147 68.86586047 124.71514116 68.86428833 131.0688324 C68.86235009 142.42381466 68.86546597 153.77878831 68.87054767 165.13376885 C68.8750167 175.43903657 68.87423876 185.74429303 68.86962891 196.04956055 C68.86428328 208.00529923 68.86228215 219.96103106 68.86524117 231.91677135 C68.86680427 238.24982565 68.86699678 244.58287218 68.86370468 250.91592598 C68.86082725 256.86740902 68.86279929 262.81887069 68.86859894 268.77035141 C68.86992717 270.96139808 68.86953136 273.15244653 68.86733627 275.34349251 C68.86462726 278.3208217 68.86800281 281.2980812 68.87301636 284.27540588 C68.87078564 285.15437407 68.86855491 286.03334225 68.86625659 286.93894583 C68.50132577 290.7790719 68.50132577 290.7790719 70 294 C71.40861666 294.0982056 72.82209572 294.12798358 74.23413086 294.12939453 C75.13695297 294.13254669 76.03977509 294.13569885 76.96995544 294.13894653 C77.95826859 294.1369223 78.94658173 294.13489807 79.96484375 294.1328125 C80.98614883 294.13376923 82.00745392 294.13472595 83.05970764 294.13571167 C85.23796652 294.13639468 87.41622741 294.13453204 89.59448242 294.13037109 C92.86446997 294.12511733 96.13431418 294.13026271 99.40429688 294.13671875 C124.24938066 294.18300231 124.24938066 294.18300231 148.8125 290.8125 C150.41266968 290.48258057 150.41266968 290.48258057 152.04516602 290.14599609 C172.47569445 285.69324862 190.37268839 273.37375225 201.91650391 255.78515625 C222.05109898 222.6116188 223.47705607 178.41438243 214.62548828 141.40136719 C209.95161204 123.457477 200.66283721 106.66311741 187 94 C186.39027344 93.40832031 185.78054688 92.81664062 185.15234375 92.20703125 C174.51700821 82.22795961 161.5733263 75.04877399 147.625 70.9375 C146.76084473 70.68073486 145.89668945 70.42396973 145.00634766 70.15942383 C130.23388229 65.91890483 114.85716764 63.80339608 99.4921875 63.90234375 C98.21494308 63.90446617 98.21494308 63.90446617 96.91189575 63.90663147 C94.23289241 63.91216081 91.55397743 63.92469926 88.875 63.9375 C87.04166789 63.94252416 85.20833444 63.94708545 83.375 63.95117188 C78.91663341 63.96210694 74.45833161 63.97932128 70 64 Z " fill="#000000" transform="translate(607,79)"/>
<path d="M0 0 C15.96200605 -0.09424559 31.92393461 -0.16436588 47.88615131 -0.20724869 C55.30090556 -0.2277062 62.71548506 -0.25549627 70.13012695 -0.30175781 C76.60723882 -0.34214997 83.08422394 -0.36755416 89.56145829 -0.37635398 C92.97799971 -0.38148222 96.39417917 -0.39316281 99.81060219 -0.42292023 C117.91400276 -0.56270496 135.18062915 0.7718611 153 4 C153.9453895 4.16947899 154.890779 4.33895798 155.86481667 4.51357269 C173.30417984 7.67646749 188.33311282 13.83556584 204 22 C205.33163267 22.6700572 206.66397856 23.33873686 208 24 C208 24.66 208 25.32 208 26 C208.70125 26.23976563 209.4025 26.47953125 210.125 26.7265625 C235.74905815 38.07634913 259.15572642 70.75064276 269.12109375 95.8203125 C269.74875 97.57384241 270.3596931 99.33354965 270.9453125 101.1015625 C271.83688768 103.55174317 272.83451457 105.84726165 273.92578125 108.2109375 C294.45389723 153.88267846 290.91725852 213.15084272 274 259 C267.87400522 275.12351091 259.53143405 290.34527301 249 304 C248.34 304.99 247.68 305.98 247 307 C246.34 307 245.68 307 245 307 C244.73372803 307.59006836 244.46745605 308.18013672 244.19311523 308.78808594 C242.1693553 312.53993062 239.06979203 315.2681935 236.0625 318.25 C235.04760498 319.25752319 235.04760498 319.25752319 234.01220703 320.28540039 C228.70840843 325.46680364 223.24092171 329.97648314 217 334 C215.99710938 334.66257812 214.99421875 335.32515625 213.9609375 336.0078125 C193.16010556 349.31832053 171.35430069 355.80576121 147 359 C145.73672882 359.17060944 144.47345764 359.34121887 143.17190552 359.51699829 C136.89168716 360.20519498 130.6211768 360.13156079 124.31030273 360.11352539 C122.94938662 360.11324281 121.58847035 360.11340264 120.22755432 360.1139679 C116.55876921 360.11425309 112.89001726 360.10840151 109.22123981 360.10139394 C105.37756188 360.09511392 101.53388307 360.09455294 97.69020081 360.09336853 C90.42313677 360.09026887 83.1560879 360.08207397 75.88903052 360.07201904 C67.61086774 360.06081539 59.33270422 360.05533676 51.05453575 360.05032361 C34.03634841 360.03989014 17.01817581 360.02231728 0 360 C-0.22407616 343.68788257 -0.40404633 327.37538192 -0.5625 311.0625 C-0.57523327 309.75354137 -0.58796654 308.44458275 -0.60108566 307.09595871 C-1.22802251 241.59104886 -0.88635681 176.08665119 -0.57217997 110.58086938 C-0.56247154 108.55656629 -0.55279042 106.53226307 -0.54311228 104.50795984 C-0.37637552 69.67189658 -0.19529053 34.83591479 0 0 Z M67 67 C66.72344534 70.04983171 66.63297007 72.89157482 66.67720032 75.94059753 C66.6787206 76.86604364 66.68024087 77.79148975 66.68180722 78.74497968 C66.69060657 81.8591163 66.72100314 84.97267282 66.7512207 88.08666992 C66.7619243 90.31367926 66.77130241 92.5406953 66.77944946 94.76771545 C66.80538616 100.82532902 66.84994323 106.88268153 66.89774728 112.9401567 C66.94453626 119.2662256 66.97433443 125.59237347 67.00590515 131.91853333 C67.06121537 142.54041225 67.12705412 153.16217378 67.20092773 163.78393555 C67.27699318 174.72498171 67.34673672 185.66603801 67.40795898 196.60717773 C67.41173415 197.28145056 67.41550932 197.95572339 67.41939888 198.65042873 C67.43829848 202.03301636 67.4570736 205.41560467 67.47578681 208.79819334 C67.63122282 236.86559338 67.80871663 264.93282312 68 293 C71.36355901 294.6817795 75.16463172 294.14147419 78.86328125 294.1328125 C79.76507614 294.13376923 80.66687103 294.13472595 81.59599304 294.13571167 C83.52029489 294.13639415 85.44459902 294.1345352 87.36889648 294.13037109 C90.23492033 294.12514156 93.10077873 294.13025087 95.96679688 294.13671875 C121.774585 294.39673556 121.774585 294.39673556 147.125 290.25 C148.13046875 290.01023437 149.1359375 289.77046875 150.171875 289.5234375 C159.51477885 287.18167607 168.2444986 283.77489581 175.9375 277.875 C176.81277344 277.21242188 177.68804688 276.54984375 178.58984375 275.8671875 C179.38519531 275.25101563 180.18054687 274.63484375 181 274 C181.76441406 273.46632813 182.52882813 272.93265625 183.31640625 272.3828125 C183.87199219 271.92648437 184.42757813 271.47015625 185 271 C185 270.34 185 269.68 185 269 C185.66 269 186.32 269 187 269 C187 268.34 187 267.68 187 267 C187.66 267 188.32 267 189 267 C190.86133736 264.89288218 192.59839217 262.78498409 194.3125 260.5625 C194.81160889 259.91796875 195.31071777 259.2734375 195.82495117 258.609375 C199.38281484 253.94730648 202.52449967 249.33318317 205 244 C205.50144531 242.91976562 206.00289062 241.83953125 206.51953125 240.7265625 C215.02810815 221.63919534 217.63022124 202.28519837 217.5625 181.5625 C217.5617749 180.18843994 217.5617749 180.18843994 217.56103516 178.78662109 C217.46786747 153.28973119 211.88915335 131.08341608 199 109 C198.34 109 197.68 109 197 109 C196.773125 108.29875 196.54625 107.5975 196.3125 106.875 C194.66158712 103.25871465 192.7091165 100.91230024 190 98 C189.34 98 188.68 98 188 98 C188 97.34 188 96.68 188 96 C187.34 96 186.68 96 186 96 C186 95.34 186 94.68 186 94 C182.51061985 90.78825589 178.73258504 87.92292471 175 85 C174.09314453 84.26136719 174.09314453 84.26136719 173.16796875 83.5078125 C165.31104683 77.42118438 155.44652298 73.82544651 146 71 C145.21238281 70.74476563 144.42476562 70.48953125 143.61328125 70.2265625 C133.24446126 66.93849085 122.82498938 65.61988447 112 64.875 C110.20284546 64.75088745 110.20284546 64.75088745 108.36938477 64.62426758 C99.56051686 64.06483748 90.76360372 63.76037389 81.9375 63.6875 C80.20790039 63.66115479 80.20790039 63.66115479 78.44335938 63.63427734 C77.37794922 63.63508301 76.31253906 63.63588867 75.21484375 63.63671875 C73.80900024 63.63224731 73.80900024 63.63224731 72.37475586 63.62768555 C69.49555561 64.07908684 68.79353385 64.75376654 67 67 Z " fill="#000000" transform="translate(1293,79)"/>
<path d="M0 0 C-0.46569799 5.43770893 -1.76411829 8.82882672 -4.75 13.375 C-8.04248733 18.48176036 -11.12320002 23.64749235 -14 29 C-14.70382812 28.7834375 -15.40765625 28.566875 -16.1328125 28.34375 C-29.17335403 24.66652158 -42.69635924 24.3112718 -54.875 30.9375 C-58.01371328 32.94082921 -58.01371328 32.94082921 -60.8125 35.25 C-63 37 -63 37 -65 37 C-65 37.66 -65 38.32 -65 39 C-66.65002828 40.35386936 -68.3174387 41.68678142 -70 43 C-70.495 43.99 -70.495 43.99 -71 45 C-71.66 45 -72.32 45 -73 45 C-73.25136719 45.52464844 -73.50273438 46.04929688 -73.76171875 46.58984375 C-75.01717067 49.03342052 -76.37947676 51.39992392 -77.7668457 53.77050781 C-89.96085146 74.6680101 -93.76155209 94.81632119 -95.05859375 118.78515625 C-95.10171692 119.57513315 -95.14484009 120.36511005 -95.18927002 121.17902565 C-96.67176493 149.34993308 -96.40329277 177.59466302 -96.50782013 205.79747009 C-96.54106154 214.75872332 -96.58161727 223.71985719 -96.63594055 232.68100929 C-96.65594718 236.5161706 -96.66429985 240.35124471 -96.67224121 244.18644714 C-96.68519607 246.50931126 -96.69871374 248.83217232 -96.71289062 251.1550293 C-96.71190872 252.21598312 -96.71092682 253.27693695 -96.70991516 254.37004089 C-96.71818832 255.33736145 -96.72646149 256.30468201 -96.73498535 257.30131531 C-96.73938503 258.56157799 -96.73938503 258.56157799 -96.7438736 259.84730053 C-97 262 -97 262 -99 265 C-110.22 265 -121.44 265 -133 265 C-133 177.22 -133 89.44 -133 -1 C-121.45 -1 -109.9 -1 -98 -1 C-97.3892714 4.49655736 -96.8761182 9.35646733 -96.90234375 14.78515625 C-96.90556641 15.97431641 -96.90878906 17.16347656 -96.91210938 18.38867188 C-96.92467773 20.2072168 -96.92467773 20.2072168 -96.9375 22.0625 C-96.94201172 23.30966797 -96.94652344 24.55683594 -96.95117188 25.84179688 C-96.96286837 28.89458221 -96.97925914 31.94726498 -97 35 C-96.01 35.495 -96.01 35.495 -95 36 C-94.773125 35.319375 -94.54625 34.63875 -94.3125 33.9375 C-92.14049924 29.07635543 -89.01736591 24.535282 -85 21 C-84.34 21 -83.68 21 -83 21 C-82.72414063 20.40445313 -82.44828125 19.80890625 -82.1640625 19.1953125 C-75.85761001 7.30193565 -58.57587414 -0.76089339 -46.35546875 -4.89453125 C-30.44731193 -9.55836839 -14.7053528 -7.31554167 0 0 Z " fill="#000000" transform="translate(593,174)"/>
</svg>
