<?xml version="1.0" encoding="utf-8"?>
<svg xmlns="http://www.w3.org/2000/svg" viewBox="0 65 2050 420" shape-rendering="geometricPrecision" text-rendering="geometricPrecision">
  <style>
    .logo-path { fill: #1b1b1b; }
  </style>
  <path class="logo-path" d="m1086.852 68.762 2.834-.025q2.968-.02 5.935-.032 2.966-.017 5.933-.062c48.436-.728 93.63 18.998 128.446 52.357l1.516 1.434c38.192 36.24 55.661 85.3 57.577 137.087.679 45.551-15.26 88.571-44.093 123.479l-2.191 2.887L1241 388h-2l-.687 1.672c-12.074 21.416-43.423 37.059-65.076 46.355q-2.266.986-4.513 2.015c-4.87 2.227-9.7 4.053-14.849 5.52l-2.221.638c-48.307 13.565-100.677 6.877-144.654-17.2-9.49-5.592-18.274-12.302-27-19l-2.332-1.629L976 405v-2l-1.77-.787c-2.386-1.298-3.982-2.706-5.902-4.62l-2.012-2.003-2.066-2.09-2.113-2.09-1.996-2.004-1.828-1.834C957 386 957 386 957 384h-2c-1.325-1.51-1.325-1.51-2.828-3.621l-1.676-2.338-1.746-2.478c-.56-.784-1.121-1.567-1.7-2.374A746 746 0 0 1 942 366l-1.586-2.257c-3.67-5.333-6.619-10.817-9.351-16.68l-1.298-2.772c-7.16-15.474-12.266-30.59-15.765-47.291l-.715-3.316c-2.279-11.43-2.448-23.068-2.41-34.684l-.012-3.54c.012-10.778.329-21.5 2.824-32.023l.525-2.267C924.262 178.92 944.782 137.027 980 110h2v-2c2.07-1.582 4.132-3.02 6.313-4.437l2.028-1.328c14.295-9.25 28.714-17.2 44.659-23.235l1.982-.757c15.922-5.972 32.871-9.338 49.87-9.481M1067 150l-3.418 1.098c-25.42 8.96-45.747 28.236-58.184 51.957A157 157 0 0 0 1002 211l-.941 2.208c-6.135 14.66-7.44 29.974-7.496 45.73l-.03 3.836c.263 28.919 12.148 54.59 31.717 75.53 12.698 12.446 27.851 20.436 44.75 25.696l2.77.934c26.047 7.788 56.41 2.649 80.082-9.934 8.82-4.92 15.999-10.916 23.148-18l2.05-1.902c15.96-15.04 23.37-36.078 26.95-57.098l.526-2.304c.9-5.114.7-10.314.714-15.494.01-2.036.04-4.072.072-6.108.102-12.453-1.962-24.275-6-36.094l-.772-2.268c-4.661-13.15-11.698-24.015-20.54-34.732l-1.342-1.703c-1.175-1.47-2.412-2.888-3.658-4.297h-2v-2c-24.156-22.109-52.662-28.417-84.68-27.216-7.095.461-13.595 1.974-20.32 4.216M1762.473 70.797l3.029-.017q3.172-.015 6.346-.02c3.153-.01 6.306-.04 9.459-.073 18.888-.098 37.71 1.163 55.693 7.313 1.085.347 2.17.694 3.29 1.05 5.144 1.722 9.982 3.468 14.695 6.156 13.367 7.458 25.13 8.05 40.203 7.856q3.513.005 7.028.022c5.838.018 11.675-.013 17.513-.06 4.903-.036 9.806-.033 14.708-.028 5.039.004 10.076.007 15.115-.013 13.17-.045 26.294.328 39.448 1.017-.991 12.8-.991 12.8-1.937 18.438l-.465 2.87C1986 118 1986 118 1985.05 120.235c-1.552 4.084-2.168 8.286-2.926 12.579-1.406 7.655-3.035 15.16-4.992 22.695-1.496 5.823-2.799 11.692-4.133 17.554-1.628 7.143-3.3 14.25-5.25 21.313-3.197 11.825-3.891 21.653-2.5 33.814.622 5.751.91 11.42.918 17.202l.013 2.602q.014 4.128.006 8.257l-.003 2.853c-.123 47.54-12.28 94.604-46.739 129.483L1917 391l-1.73 1.8c-1.386 1.438-2.827 2.82-4.27 4.2h-2v2a99 99 0 0 1-5 4.188c-3.346 2.666-6.616 5.337-9.75 8.25-10.473 9.195-22.712 15.676-35.25 21.562l-3.102 1.5c-10.688 5.058-21.856 7.59-33.388 9.966-2.448.52-4.877 1.098-7.31 1.679-27.728 6.156-58.828 5.047-86.2-2.145q-2.415-.585-4.832-1.164c-16.17-4.042-32.124-9.788-46.168-18.836-3.605-2.12-7.228-4.19-11-6v-2l-2.14-.715c-9.61-4.318-17.79-14.022-25.172-21.348l-2.302-2.273-2.124-2.137-1.908-1.914C1632 386 1632 386 1632 384h-2c-1.262-1.398-1.262-1.398-2.687-3.375l-1.604-2.213L1624 376l-1.756-2.461c-10.241-14.488-18.44-28.707-24.244-45.539l-.738-2.094A299 299 0 0 1 1595 319l-1.191-3.672c-15.042-47.681-8.673-100.933 12.773-145.625 7.341-13.994 16.35-27.06 27.3-38.445 2.142-2.068 2.142-2.068 3.118-4.258h2v-2h2l1-3c12.767-13.56 29.4-24.052 46.034-32.054a733 733 0 0 0 5.29-2.579c21.553-10.33 45.19-16.461 69.149-16.57M1746 137v4c2.17 1.758 2.17 1.758 5 3.25 12.005 7.259 19.513 17.386 23.3 30.938 2.436 13.28 1.674 26.586-4.3 38.812-1.838 2.651-3.709 4.709-6 7v2h-2v2h-2v2l-1.715.816c-2.392 1.24-4.587 2.658-6.848 4.121-11.104 6.602-23.918 7.825-36.539 5.489A60 60 0 0 1 1708 235l-3.062-1.25c-13.628-8.118-21.792-18.886-25.777-34.301A366 366 0 0 1 1677 190c-1.892-.036-1.892-.036-4 1a59 59 0 0 0-3.875 7l-1.046 2.177c-15.669 33.378-18.095 71.726-5.865 106.72 5.888 15.752 14.628 29.42 26.786 41.103h2v2a121 121 0 0 0 6.313 5.188l1.946 1.5c27.989 21.361 60.662 29.418 95.595 25.603 10.02-1.357 19.755-3.537 29.146-7.291l2.95-1.105c20.518-8.108 36.556-21.945 49.05-39.895l1.727-2.137c1.555-1.9 1.555-1.9 1.273-4.863h2l1.25-2.5a542 542 0 0 1 2.688-5.326c14.724-28.857 16.27-67.809 7.187-98.729-5.036-15.422-11.21-29.294-22.125-41.445q-1.364-1.562-2.727-3.125c-3.54-4.028-3.54-4.028-7.273-7.875h-2v-2a99 99 0 0 0-5.875-4.812l-1.777-1.357c-7.964-6.216-7.964-6.216-17.348-8.831v-2c-18.264-7.137-35.618-11.928-55.312-12.625l-3.771-.136c-9.37-.293-18.586-.105-27.917.761M72.8 77.805c4.464 1.667 5.149 4.084 7.08 8.292l1.308 3.028 2.874 6.324 1.47 3.29c2.3 5.107 4.728 10.151 7.156 15.198l1.39 2.91c3.572 7.465 7.24 14.879 10.97 22.266 1.66 3.291 3.305 6.59 4.952 9.887l2 4 110 220h2l1.61-3.254 2.14-4.308 1.055-2.135c1.69-3.398 3.42-6.74 5.336-10.018 1.56-2.757 2.7-5.353 3.859-8.285a519 519 0 0 1 4-7.5c4.016-7.482 7.717-15.084 11.336-22.765a639 639 0 0 1 7.726-15.86c2.905-5.75 5.696-11.546 8.438-17.375 5.062-10.744 10.275-21.392 15.906-31.85 3.626-6.739 6.894-13.492 9.853-20.547 2.654-6.187 5.928-11.968 9.258-17.811 2.525-4.464 4.625-8.84 6.39-13.66 1.483-3.571 3.315-6.92 5.156-10.32 4.244-7.848 8.098-15.85 11.906-23.917 2.662-5.612 5.424-11.135 8.406-16.583 2.799-5.117 5.142-10.298 7.313-15.71 1.748-4.132 3.767-8.11 5.8-12.105 4.12-8.13 8.027-16.363 11.944-24.593C364.107 88.812 366.818 83.322 370 78l5 1c2.652 14.061 4.603 28.195 6.5 42.375q.887 6.606 1.781 13.21l.438 3.235a889 889 0 0 0 3.254 21.625c1.183 7.372 2.088 14.765 2.964 22.18 1.284 10.61 2.75 21.17 4.49 31.717 1.47 8.915 2.822 17.844 4.135 26.783l.327 2.218c1.15 7.843 2.274 15.688 3.277 23.551.13 1.025.262 2.05.397 3.106l.301 2.387c.871 6.791 1.864 13.558 2.917 20.324l.522 3.376c1.154 7.447 2.319 14.891 3.484 22.335a17791 17791 0 0 1 3.482 22.337c3.037 19.572 5.937 39.145 8.198 58.825l.498 4.291.236 2.046c.688 5.692 1.676 11.319 2.837 16.934 1.16 5.98.962 10.723.962 17.145h-33c-2.249-6.747-2.249-6.747-2.746-10.293l-.344-2.378-.348-2.517-.777-5.402-.394-2.75a590 590 0 0 0-1.518-9.63c-2.239-13.698-3.98-27.474-5.435-41.276l-.26-2.447a548 548 0 0 1-.444-4.424c-.34-3.3-.862-6.375-1.7-9.588-1.09-4.274-1.647-8.512-2.112-12.893l-.571-5.06-.296-2.669a1084 1084 0 0 0-7-51.529 664 664 0 0 1-3.557-25.187c-.769-6.106-1.695-12.186-2.615-18.27-1.71-11.337-3.33-22.678-4.695-34.062l-.375-3.111c-.454-3.888-.813-7.591-.813-11.514-3.188 2.9-5.017 5.599-6.848 9.488l-1.567 3.296-1.647 3.529q-.862 1.823-1.728 3.643a2424 2424 0 0 0-3.513 7.44 2897 2897 0 0 1-7.51 15.792l-1.366 2.86c-4.766 9.958-9.59 19.878-14.865 29.578-3.052 5.614-5.84 11.237-8.331 17.124-3.64 8.593-8.023 16.743-12.417 24.969-4.386 8.282-8.484 16.707-12.458 25.192-3.305 7.056-6.708 14.026-10.375 20.902-4.442 8.331-8.716 16.742-12.937 25.187l-.985 1.97c-4.26 8.529-8.417 17.1-12.451 25.738-2.515 5.353-5.215 10.58-8.041 15.775-2.933 5.4-5.667 10.888-8.348 16.416-1.338 2.726-2.45 4.938-4.613 7.101-7.214.573-7.214.573-9.555-1.133-1.954-2.524-3.24-5.181-4.632-8.055l-1.86-3.804-.97-2a506 506 0 0 0-2.936-5.89 680 680 0 0 1-9.984-20.555c-3.004-6.466-6.248-12.763-9.633-19.036-2.872-5.365-5.493-10.821-8.055-16.34-2.97-6.389-6.184-12.476-9.832-18.511-2.003-3.474-3.58-7.073-5.188-10.742-1.527-3.305-3.237-6.49-4.98-9.684-3.263-6.015-6.266-12.125-9.187-18.312-5.14-10.87-10.489-21.628-15.875-32.375l-1.217-2.428q-2.35-4.688-4.703-9.374a3501 3501 0 0 1-5.608-11.206l-1.075-2.159q-.988-1.982-1.972-3.965c-2.798-5.617-5.771-11.132-8.781-16.638-2.053-3.872-3.83-7.86-5.625-11.856-2.245-4.951-4.605-9.848-6.957-14.75l-1.445-3.021-1.407-2.936-1.325-2.772a186 186 0 0 0-3.034-5.907C90 184 90 184 90 180l-2 1c-.555 1.95-.555 1.95-.838 4.342l-.405 2.806-.413 3.07-.448 3.17c-.474 3.37-.935 6.74-1.396 10.112q-.465 3.319-.934 6.637c-1.407 10.045-2.751 20.093-3.902 30.17-.73 6.374-1.615 12.72-2.539 19.068l-.52 3.61a2937 2937 0 0 1-2.613 17.73c-2.387 15.857-4.516 31.737-6.53 47.645a6159 6159 0 0 1-2.087 16.265l-.336 2.632a477 477 0 0 1-2 13.817c-1.363 8.754-2.309 17.556-3.289 26.36-.832 7.444-1.692 14.815-3.277 22.145-.963 4.93-1.458 9.934-2.035 14.921q-.373 3.204-.754 6.406l-.327 2.823C53 437 53 437 52 439a5235 5235 0 0 1-14.044.055q-2.391.008-4.781.02c-2.287.013-4.573.018-6.859.023l-2.171.015c-1.716 0-3.43-.051-5.145-.113l-1-1c.095-9.875 1.747-19.634 3.354-29.35.69-4.184 1.36-8.373 2.033-12.56l.415-2.576c1.322-8.224 2.558-16.46 3.76-24.702l.309-2.107a9185 9185 0 0 0 5.118-35.653q1.785-12.556 3.636-25.103c3.296-22.365 6.46-44.741 9.443-67.15 1.8-13.531 3.66-27.05 5.682-40.549 1.494-9.973 2.885-19.946 4.091-29.958 1.156-9.514 2.51-18.997 3.853-28.486 2.102-14.906 3.937-29.841 5.694-44.792.1-.848.202-1.696.306-2.569q.283-2.386.558-4.773c.362-3.035.778-5.763 1.748-8.672 2-1 2-1 4.8-1.195M607 79q24.112-.142 48.225-.207c7.468-.02 14.935-.048 22.402-.095q9.786-.061 19.571-.074c3.44-.005 6.881-.017 10.322-.047C731.77 78.391 755.563 80.52 779 87l1.995.534c10.072 2.727 19.145 6.643 28.332 11.573 1.372.732 2.759 1.436 4.15 2.131 36.31 18.7 59.393 55.663 71.793 93.398 1.242 4.02 2.252 8.085 3.23 12.177l.605 2.404c4.067 16.927 5.414 33.605 5.27 50.97l-.012 2.973c-.118 24.74-2.748 48.213-10.363 71.84l-.793 2.707C877.501 356.321 866.763 374.37 854 389l-2.484 2.887C833.706 412.184 810.363 426.742 784 433l-1.887.504c-4.712 1.249-9.33 1.997-14.176 2.496q-2.018.216-4.035.438l-2.148.231c-2.009.241-4.014.518-6.016.815-8.686 1.272-17.116 1.8-25.91 1.759l-4.02.006c-3.587.004-7.172-.003-10.758-.013-3.769-.01-7.537-.007-11.306-.007q-9.462-.002-18.926-.023-10.947-.023-21.894-.02-11.682-.001-23.364-.016l-6.726-.003c-4.158-.001-8.316-.011-12.474-.022l-3.771.002-3.407-.013-2.977-.005C608 439 608 439 607 438c-.098-1.908-.124-3.82-.123-5.73l-.006-3.795.009-4.224q0-2.223-.003-4.445-.002-6.137.007-12.273.005-6.606.002-13.213 0-11.455.008-22.911.011-16.563.012-33.126.004-26.87.019-53.74.014-26.108.02-52.217v-3.248l.005-16.134q.016-66.972.05-133.944m70 64c-1.68 3.36-1.136 7.157-1.127 10.852l-.005 2.812c-.004 3.128 0 6.257.003 9.385l-.006 6.705q-.005 9.128 0 18.254c.003 6.353 0 12.707 0 19.06q-.004 17.033.006 34.066.005 15.457-.001 30.916-.01 17.933-.005 35.867.003 9.5-.001 18.999-.004 8.927.005 17.854 0 3.287-.002 6.573-.002 4.467.006 8.932l-.007 2.664c-.365 3.84-.365 3.84 1.134 7.061 1.409.098 2.822.128 4.234.13l2.736.009 2.995-.006 3.095.003q3.267 0 6.534-.006c3.27-.005 6.54 0 9.81.007 24.845.046 24.845.046 49.409-3.325l3.232-.666c20.43-4.453 38.328-16.772 49.872-34.36 20.134-33.174 21.56-77.372 12.708-114.385C816.952 202.457 807.663 185.663 794 173l-1.848-1.793c-10.635-9.979-23.579-17.158-37.527-21.27l-2.619-.778a161.5 161.5 0 0 0-45.514-6.257l-2.58.005c-2.68.005-5.358.018-8.037.03q-2.75.008-5.5.014-6.687.017-13.375.049"/><path fill="#1b1b1b" d="M1293 79q23.943-.142 47.886-.207c7.415-.02 14.83-.048 22.244-.095q9.716-.061 19.431-.074c3.417-.005 6.833-.017 10.25-.047 18.103-.14 35.37 1.195 53.189 4.423l2.865.514c17.44 3.162 32.468 9.322 48.135 17.486a678 678 0 0 0 4 2v2l2.125.727c25.624 11.35 49.03 44.024 58.996 69.093a234 234 0 0 1 1.824 5.282c.892 2.45 1.89 4.745 2.98 7.109 20.529 45.672 16.992 104.94.075 150.789-6.126 16.124-14.469 31.345-25 45l-2 3h-2l-.807 1.788c-2.024 3.752-5.123 6.48-8.13 9.462l-2.05 2.035c-5.305 5.182-10.772 9.691-17.013 13.715l-3.04 2.008c-20.8 13.31-42.606 19.798-66.96 22.992l-3.828.517c-6.28.688-12.55.615-18.862.597h-4.082q-5.504-.001-11.007-.013c-3.843-.006-7.687-.006-11.53-.008q-10.902-.004-21.802-.021-12.417-.016-24.834-.022-25.528-.016-51.055-.05c-.224-16.312-.404-32.625-.562-48.937l-.04-3.967c-.626-65.505-.284-131.01.03-196.515l.029-6.073q.25-52.254.543-104.508m67 67a83 83 0 0 0-.323 8.94l.005 2.805c.009 3.114.039 6.228.07 9.342q.016 3.34.027 6.68c.026 6.058.07 12.116.119 18.173.047 6.326.076 12.652.108 18.979q.083 15.932.195 31.865a24195 24195 0 0 1 .275 45.014c.155 28.068.333 56.135.524 84.202 3.364 1.682 7.165 1.141 10.863 1.133l2.733.003q2.887 0 5.773-.006c2.866-.005 5.732 0 8.598.007 25.808.26 25.808.26 51.158-3.887l3.047-.727c9.343-2.341 18.072-5.748 25.765-11.648l2.653-2.008L1474 353l2.316-1.617L1478 350v-2h2v-2h2a124 124 0 0 0 5.313-6.437l1.512-1.954c3.558-4.662 6.7-9.276 9.175-14.609l1.52-3.273c8.508-19.088 11.11-38.442 11.043-59.164l-.002-2.776c-.093-25.497-5.672-47.704-18.561-69.787h-2l-.687-2.125c-1.651-3.616-3.604-5.963-6.313-8.875h-2v-2h-2v-2c-3.49-3.212-7.267-6.077-11-9l-1.832-1.492c-7.857-6.087-17.721-9.683-27.168-12.508l-2.387-.773c-10.369-3.289-20.788-4.607-31.613-5.352l-3.63-.25a479 479 0 0 0-26.432-.937l-3.495-.054-3.228.003-2.84-.01c-2.88.452-3.581 1.127-5.375 3.373M593 174c-.466 5.438-1.764 8.829-4.75 13.375-3.292 5.107-6.373 10.272-9.25 15.625l-2.133-.656c-13.04-3.677-26.563-4.033-38.742 2.594-3.139 2.003-3.139 2.003-5.937 4.312C530 211 530 211 528 211v2a263 263 0 0 1-5 4l-1 2h-2l-.762 1.59c-1.255 2.443-2.617 4.81-4.005 7.18-12.194 20.898-15.995 41.046-17.292 65.015l-.13 2.394c-1.483 28.17-1.214 56.416-1.319 84.618q-.048 13.443-.128 26.884c-.02 3.835-.028 7.67-.036 11.505l-.04 6.969.002 3.215-.025 2.931-.009 2.546C496 436 496 436 494 439h-34V173h35c.61 5.497 1.124 10.356 1.098 15.785l-.01 3.604-.026 3.673-.013 3.78Q496.03 204.42 496 209l2 1 .688-2.062c2.172-4.862 5.295-9.403 9.312-12.938h2l.836-1.805c6.306-11.893 23.588-19.956 35.809-24.09 15.908-4.663 31.65-2.42 46.355 4.895"/></svg>
